<?xml version="1.0" encoding="UTF-8"?>
<svg width="26px" height="26px" viewBox="0 0 26 26" version="1.1" xmlns="http://www.w3.org/2000/svg" xmlns:xlink="http://www.w3.org/1999/xlink">
    <!-- Generator: Sketch 49 (51002) - http://www.bohemiancoding.com/sketch -->
    <title>cancel-music</title>
    <desc>Created with Sketch.</desc>
    <defs></defs>
    <g id="Page-1" stroke="none" stroke-width="1" fill="none" fill-rule="evenodd">
        <g id="wto-main-mobile-menu" transform="translate(-24.000000, -20.000000)" fill="#464646" fill-rule="nonzero">
            <g id="cancel-music" transform="translate(24.000000, 20.000000)">
                <path d="M16.0887207,12.9989624 L25.3579038,3.72977934 C26.2111432,2.87653991 26.2111432,1.49316901 25.3579038,0.640051643 C24.5046643,-0.213187793 23.1214155,-0.213187793 22.2681761,0.640051643 L12.9988709,9.90935681 L3.72956573,0.639929577 C2.87632629,-0.213309859 1.49307746,-0.213309859 0.639838028,0.639929577 C-0.213279343,1.49316901 -0.213279343,2.87653991 0.639838028,3.72965728 L9.90914319,12.9988404 L0.639838028,22.2681455 C-0.213279343,23.121385 -0.213279343,24.5047559 0.639838028,25.3578732 C1.49307746,26.2111127 2.87632629,26.2111127 3.72956573,25.3578732 L12.9988709,16.0885681 L22.2681761,25.3578732 C23.1212934,26.2111127 24.5046643,26.2111127 25.3579038,25.3578732 C26.2111432,24.5046338 26.2111432,23.121385 25.3579038,22.2681455 L16.0887207,12.9989624 Z" id="Shape"></path>
            </g>
        </g>
    </g>
</svg>