<?xml version="1.0" encoding="UTF-8"?>
<svg width="8px" height="12px" viewBox="0 0 8 12" version="1.1" xmlns="http://www.w3.org/2000/svg" xmlns:xlink="http://www.w3.org/1999/xlink">
    <!-- Generator: Sketch 46.2 (44496) - http://www.bohemiancoding.com/sketch -->
    <title>submit-icon copy 2</title>
    <desc>Created with Sketch.</desc>
    <defs></defs>
    <g id="Page-1" stroke="none" stroke-width="1" fill="none" fill-rule="evenodd">
        <g id="wto-news-list-desktop" transform="translate(-750.000000, -1628.000000)">
            <g id="Group-7" transform="translate(445.000000, 1616.000000)">
                <g id="submit-icon-copy-2" transform="translate(302.000000, 11.000000)">
                    <g id="down-arrow" transform="translate(7.000000, 7.000000) scale(-1, 1) rotate(90.000000) translate(-7.000000, -7.000000) ">
                        <g id="Group-38">
                            <path d="M12.4854041,4.30821256 C12.3310382,4.16392915 12.0801935,4.16392915 11.9258276,4.30821256 L7.00541324,8.91626407 L2.07535099,4.30821256 C1.92098505,4.16392915 1.67014039,4.16392915 1.51577446,4.30821256 C1.36140852,4.45249597 1.36140852,4.68695652 1.51577446,4.83123994 L6.71597708,9.69178742 C6.79316005,9.76392914 6.88963876,9.8 6.99576535,9.8 C7.09224404,9.8 7.19837062,9.76392914 7.2755536,9.69178742 L12.4757562,4.83123994 C12.6397701,4.68695652 12.6397701,4.45249597 12.4854041,4.30821256 Z" id="Shape" stroke="#000000" stroke-width="0.7" fill="#000000" fill-rule="nonzero"></path>
                            <rect id="Rectangle-9-Copy-4" x="8.8817842e-16" y="0" width="14" height="14"></rect>
                        </g>
                    </g>
                </g>
            </g>
        </g>
    </g>
</svg>