<?xml version="1.0" encoding="UTF-8"?>
<svg width="105px" height="105px" viewBox="0 0 105 105" version="1.1" xmlns="http://www.w3.org/2000/svg" xmlns:xlink="http://www.w3.org/1999/xlink">
    <!-- Generator: Sketch 46.2 (44496) - http://www.bohemiancoding.com/sketch -->
    <title>Combined Shape</title>
    <desc>Created with Sketch.</desc>
    <defs></defs>
    <g id="Page-1" stroke="none" stroke-width="1" fill="none" fill-rule="evenodd" opacity="0.75">
        <g id="wto-videos-list-desktop" transform="translate(-587.000000, -909.000000)" stroke="#FFFFFF" stroke-width="3.2" fill="#FFFFFF">
            <g id="play-icon" transform="translate(589.000000, 911.000000)">
                <path d="M50.6020202,100.456621 C22.6552961,100.456621 0,77.9686404 0,50.2283105 C0,22.4879806 22.6552961,0 50.6020202,0 C78.5487443,0 101.20404,22.4879806 101.20404,50.2283105 C101.20404,77.9686404 78.5487443,100.456621 50.6020202,100.456621 Z M71.9701761,46.2078496 L44.3127348,30.6168464 C42.6120871,29.6581397 40.5739573,29.6581917 38.8728435,30.6165904 C37.168198,31.5773602 36.1443001,33.3088149 36.1443001,35.2351918 L36.1443001,66.4171982 C36.1443001,68.3436115 37.1680603,70.0748716 38.8727069,71.0357226 C39.7130021,71.5095707 40.6462036,71.7547293 41.5923714,71.7547293 C42.5381372,71.7547293 43.4716706,71.5093543 44.3124362,71.0356171 L71.9703378,55.4447081 C73.6747156,54.483598 74.6982203,52.7523562 74.6982203,50.8260309 C74.6982203,48.8998215 73.6744961,47.168546 71.9701761,46.2078496 Z" id="Combined-Shape"></path>
            </g>
        </g>
    </g>
</svg>