<?xml version="1.0" encoding="UTF-8"?>
<svg width="26px" height="26px" viewBox="0 0 26 26" version="1.1" xmlns="http://www.w3.org/2000/svg" xmlns:xlink="http://www.w3.org/1999/xlink">
    <!-- Generator: Sketch 49 (51002) - http://www.bohemiancoding.com/sketch -->
    <title>search-icon</title>
    <desc>Created with Sketch.</desc>
    <defs></defs>
    <g id="Page-1" stroke="none" stroke-width="1" fill="none" fill-rule="evenodd">
        <g id="wto-main-mobile-menu" transform="translate(-325.000000, -20.000000)" fill="#FFFFFF" fill-rule="nonzero">
            <g id="search-icon" transform="translate(325.000000, 20.000000)">
                <path d="M25.2941673,22.2298964 L19.6612829,16.5971155 C19.6313466,16.5671793 19.5962311,16.546255 19.5649482,16.5183904 C20.6733147,14.8370916 21.3202072,12.8245259 21.3202072,10.6602072 C21.3202072,4.77270916 16.547498,0 10.6601036,0 C4.77270916,0 0,4.77270916 0,10.6601036 C0,16.5473944 4.77260558,21.3202072 10.66,21.3202072 C12.8244223,21.3202072 14.8368845,20.6733147 16.5181833,19.5649482 C16.5460478,19.5961275 16.5668685,19.631243 16.5968048,19.6611793 L22.2297928,25.2941673 C23.0759841,26.140255 24.4478725,26.140255 25.2941673,25.2941673 C26.140255,24.4479761 26.140255,23.0760876 25.2941673,22.2298964 Z M10.6601036,17.6246853 C6.81355378,17.6246853 3.69541833,14.5065498 3.69541833,10.6601036 C3.69541833,6.81355378 6.81365737,3.69541833 10.6601036,3.69541833 C14.5064462,3.69541833 17.6246853,6.81365737 17.6246853,10.6601036 C17.6246853,14.5065498 14.5064462,17.6246853 10.6601036,17.6246853 Z" id="Shape"></path>
            </g>
        </g>
    </g>
</svg>