<?xml version="1.0" encoding="UTF-8"?>
<svg width="6px" height="10px" viewBox="0 0 6 10" version="1.1" xmlns="http://www.w3.org/2000/svg" xmlns:xlink="http://www.w3.org/1999/xlink">
    <!-- Generator: Sketch 46.2 (44496) - http://www.bohemiancoding.com/sketch -->
    <title>Shape</title>
    <desc>Created with Sketch.</desc>
    <defs></defs>
    <g id="Page-1" stroke="none" stroke-width="1" fill="none" fill-rule="evenodd">
        <g id="wto-faq-desktop" transform="translate(-246.000000, -243.000000)" stroke="#FFFFFF" stroke-width="0.5" fill="#FFFFFF" fill-rule="nonzero">
            <g id="Group-6" transform="translate(164.000000, 240.000000)">
                <g id="down-arrow-copy" transform="translate(85.500000, 8.500000) scale(-1, 1) rotate(90.000000) translate(-85.500000, -8.500000) translate(81.000000, 6.000000)">
                    <path d="M7.94814458,0.118702553 C7.83788319,0.0027605245 7.65870844,0.0027605245 7.54844705,0.118702553 L4.03386537,3.8216011 L0.512392344,0.118702553 C0.402130958,0.0027605245 0.222956205,0.0027605245 0.112694819,0.118702553 C0.00243343275,0.234644582 0.00243343275,0.42305038 0.112694819,0.538992409 L3.82712527,4.44478951 C3.88225596,4.50276052 3.95116933,4.53174603 4.02697403,4.53174603 C4.0958874,4.53174603 4.1716921,4.50276052 4.22682279,4.44478951 L7.94125324,0.538992409 C8.05840596,0.42305038 8.05840596,0.234644582 7.94814458,0.118702553 Z" id="Shape"></path>
                </g>
            </g>
        </g>
    </g>
</svg>