<?xml version="1.0" encoding="UTF-8"?>
<svg width="14px" height="8px" viewBox="0 0 14 8" version="1.1" xmlns="http://www.w3.org/2000/svg" xmlns:xlink="http://www.w3.org/1999/xlink">
    <!-- Generator: Sketch 46.2 (44496) - http://www.bohemiancoding.com/sketch -->
    <title>submit-icon</title>
    <desc>Created with Sketch.</desc>
    <defs></defs>
    <g id="Page-1" stroke="none" stroke-width="1" fill="none" fill-rule="evenodd" opacity="0.5">
        <g id="wto-photo-albums-list-desktop" transform="translate(-769.000000, -418.000000)">
            <g id="Group-5" transform="translate(640.000000, -2457.000000)">
                <g id="submit-icon" transform="translate(136.000000, 2879.000000) rotate(90.000000) translate(-136.000000, -2879.000000) translate(128.000000, 2871.000000)">
                    <g id="down-arrow" transform="translate(8.000000, 8.000000) scale(-1, 1) rotate(90.000000) translate(-8.000000, -8.000000) ">
                        <g id="Group-38">
                            <path d="M14.2690333,4.9236715 C14.092615,4.75877617 13.8059354,4.75877617 13.6295172,4.9236715 L8.00618656,10.1900161 L2.3718297,4.9236715 C2.19541149,4.75877617 1.90873188,4.75877617 1.73231366,4.9236715 C1.55589545,5.08856682 1.55589545,5.35652174 1.73231366,5.52141707 L7.67540238,11.0763285 C7.76361149,11.1587762 7.87387287,11.2 7.9951604,11.2 C8.10542176,11.2 8.22670928,11.1587762 8.3149184,11.0763285 L14.2580071,5.52141707 C14.4454515,5.35652174 14.4454515,5.08856682 14.2690333,4.9236715 Z" id="Shape" stroke="#000000" stroke-width="0.7" fill="#000000" fill-rule="nonzero"></path>
                            <rect id="Rectangle-9-Copy-4" x="8.8817842e-16" y="0" width="16" height="16"></rect>
                        </g>
                    </g>
                </g>
            </g>
        </g>
    </g>
</svg>